<?xml version="1.0" encoding="UTF-8"?><svg id="Layer_2" xmlns="http://www.w3.org/2000/svg" viewBox="0 0 446.29 87.51"><defs><style>.cls-1{fill:#111211;}.cls-2{fill:#17c978;}</style></defs><g id="Layer_1-2"><g><path class="cls-2" d="M87.3,14.99C67.35-5,34.9-5,14.96,14.99c-19.94,19.99-19.94,52.52,0,72.51l9.63-9.65c-14.63-14.67-14.63-38.54,0-53.2,14.63-14.67,38.45-14.67,53.08,0,7.09,7.11,10.99,16.55,10.99,26.6,0,5.5-1.18,10.82-3.4,15.67l-34.13-15.7,26.54,26.63s0,0,0,0l9.63,9.65c9.66-9.69,14.98-22.56,14.98-36.26s-5.32-26.57-14.98-36.26Z"/><g><path class="cls-1" d="M134.89,15.19h24.2c14.81,0,22.75,8.32,22.75,20.64,0,8.76-4,15.25-11.6,18.31l13.96,25.59h-13.04l-12.67-23.63h-11.91v23.63h-11.69V15.19Zm22.47,31.2c8.67,0,12.57-3.69,12.57-10.56s-3.91-10.87-12.64-10.87h-10.71v21.43h10.78Z"/><path class="cls-1" d="M186.31,55.81c0-14.94,9.04-25.11,22.91-25.11,11.91,0,22.12,7.47,22.12,24.45v3.5h-33.72c.09,8.29,4.98,13.14,12.35,13.14,4.92,0,8.7-2.14,10.24-6.24l10.65,1.2c-2.02,8.41-9.77,13.93-21.05,13.93-14.59,0-23.51-9.67-23.51-24.86Zm34.09-4.85c-.06-6.59-4.47-11.38-11.03-11.38s-11.37,5.2-11.72,11.38h22.75Z"/><path class="cls-1" d="M261.41,79.72h-12.6l-17.24-48.4h12.16l11.12,35.95h.5l11.16-35.95h12.13l-17.24,48.4Z"/><path class="cls-1" d="M278.68,55.71c0-14.78,8.95-25.02,23.13-25.02,11.82,0,20.01,6.9,20.8,17.39h-10.9c-.88-4.66-4.25-8.19-9.74-8.19-7.03,0-11.72,5.86-11.72,15.63s4.6,15.85,11.72,15.85c5.01,0,8.76-2.99,9.74-8.19h10.9c-.82,10.27-8.57,17.49-20.73,17.49-14.46,0-23.19-10.3-23.19-24.96Z"/><path class="cls-1" d="M326.51,66.14c0-10.9,8.98-13.71,18.37-14.72,8.54-.91,11.97-1.07,11.97-4.35v-.19c0-4.76-2.9-7.47-8.19-7.47-5.58,0-8.79,2.84-9.93,6.14l-10.65-1.51c2.52-8.82,10.34-13.36,20.51-13.36,9.23,0,19.66,3.84,19.66,16.64v32.39h-10.97v-6.65h-.38c-2.08,4.07-6.62,7.63-14.21,7.63-9.23,0-16.2-5.04-16.2-14.56Zm30.38-3.78v-5.7c-1.48,1.2-7.47,1.95-10.46,2.36-5.1,.72-8.92,2.55-8.92,6.93s3.4,6.36,8.16,6.36c6.87,0,11.22-4.57,11.22-9.96Z"/><path class="cls-1" d="M403.86,45.25c-.88-3.18-3.66-6.05-8.92-6.05-4.76,0-8.38,2.27-8.35,5.55-.03,2.8,1.92,4.51,6.84,5.61l8.26,1.76c9.14,1.99,13.58,6.21,13.61,13.11-.03,9.17-8.57,15.44-20.67,15.44s-19.35-5.26-20.77-14.15l11.12-1.07c.98,4.35,4.38,6.62,9.61,6.62s9.01-2.49,9.01-5.8c0-2.74-2.08-4.54-6.52-5.51l-8.26-1.73c-9.3-1.92-13.64-6.59-13.61-13.64-.03-8.95,7.91-14.68,19.57-14.68s17.9,5.23,19.47,13.42l-10.4,1.13Z"/><path class="cls-1" d="M445.41,40.15h-9.55v25.02c0,4.6,2.3,5.61,5.17,5.61,1.42,0,2.71-.28,3.34-.44l1.92,8.92c-1.23,.41-3.47,1.04-6.71,1.13-8.57,.25-15.19-4.22-15.13-13.33v-26.91h-6.87v-8.82h6.87v-11.6h11.41v11.6h9.55v8.82Z"/></g></g></g></svg>